<svg xmlns="http://www.w3.org/2000/svg" viewBox="0 0 600 50" width="600px" height="50px"><g fill="none" stroke="#C1DB74" stroke-width=".75" stroke-miterlimit="10"><circle cx="125" cy="25" r="23.5"/><path d="M132.9 23.2c0 1-.2 2-.6 2.9v.1l-.2.4-2.5 5.6-.1.3-.8 1.7v4.2h-.7v.1c0 .8-1.3 1.7-2.9 1.7-1.6 0-3-.9-3-1.7v-.1h-.8v-4.3l-3.2-7.2c-.6-1.1-1-2.4-1-3.7 0-4.3 3.5-7.8 7.9-7.8 4.4.1 7.9 3.5 7.9 7.8zm-11.6 10.9h7.4m-7.4 4.3h7.4m-7.4-2.4h7.4m-16.4-5.7L116 28m-4.1-11.2l3.9 2m21.9 11.5L134 28m4.1-11.2l-3.9 2M125 8.7v4.4m1.3 20.9s1.1-7.7 1.1-7.9c.2-1.3 2.4-.8 1.5.5-.3.5-.9.6-1.5.5-.8-.2-1.5-.6-2.2-1.1-.3-.3-.7-.6-.9-1-.2-.3-.3-.9 0-1.3.2-.2.6-.2.9-.2.1 0 .2.1.3.2.7.7-.4 1.8-.9 2.2-.6.5-1.4.9-2.2 1.1-.5.1-1.2 0-1.5-.5-.9-1.3 1.4-1.8 1.5-.5 0 .2 1.1 7.9 1.1 7.9" stroke-linecap="round" stroke-linejoin="round"/></g><g fill="none" stroke="#C1DB74" stroke-width=".75" stroke-miterlimit="10"><circle cx="75" cy="25" r="23.5"/><circle cx="75.2" cy="18.3" r="3.4"/><path stroke-linecap="round" stroke-linejoin="round" d="M81 22.1l-.3.6c-.8 1.6-1.6 3.1-2.4 4.7-.4.9-.9 1.7-1.3 2.6-.6 1.3-1.3 2.6-1.9 3.8 0 0 0 .1-.1.1-.5-1-1-1.9-1.5-2.9-.9-1.8-1.9-3.7-2.8-5.5-.6-1.3-1.3-2.5-1.9-3.8-.6-1.2-1-2.4-1-3.7 0-4 3.2-7.2 7.2-7.2s7.2 3.2 7.2 7.2c0 1.5-.6 2.8-1.2 4.1z"/><path stroke-linecap="round" stroke-linejoin="round" d="M77.2 29.5c6.5.3 11.5 2.2 11.5 4.5 0 2.5-6.1 4.5-13.5 4.5s-13.5-2-13.5-4.5c0-2.2 4.7-4 11-4.4"/></g><g fill="none" stroke="#C1DB74" stroke-width=".75" stroke-miterlimit="10"><circle cx="25" cy="25" r="23.5"/><path stroke-linecap="round" stroke-linejoin="round" d="M26.5 21.2c3.9 2.5 5.1 6 3.3 9.6m1.8 3.7c3.3-5.3 4.1-12.5-5.2-17.1m5.2 17.1v4.6H16.1v-3.7h9.8v-2.7m.6-11.5v3.3h-2.1v1h-1.9v-1h-2.2V14.2h1.8l.1-3.3h2.4v3.3h1.9v3.2"/><path stroke-linejoin="round" d="M17.7 30.8h12.2v1.7H17.7z"/><path d="M22.1 14.2h2.7m-2.7 10.3h3.1m1.3-2.9v-5.7"/></g><g fill="none" stroke="#C1DB74" stroke-width=".75" stroke-miterlimit="10"><circle cx="175" cy="25" r="23.5"/><circle cx="175" cy="25" r="12.8"/><ellipse cx="175" cy="25" rx="5.6" ry="12.8"/><path d="M162.2 25h25.6M175 12.2v25.6m-9.8-4.7c5.4-5.4 14.2-5.4 19.6 0m0-16.3c-5.4 5.4-14.2 5.4-19.6 0"/></g><circle fill="none" stroke="#00B1AC" stroke-width=".75" stroke-miterlimit="10" cx="274.9" cy="25" r="23.5"/><circle fill="none" stroke="#00B1AC" stroke-width=".75" stroke-miterlimit="10" cx="271" cy="26.4" r="4.8"/><circle fill="none" stroke="#00B1AC" stroke-width=".75" stroke-miterlimit="10" cx="284.1" cy="34.4" r="3.2"/><circle fill="none" stroke="#00B1AC" stroke-width=".75" stroke-miterlimit="10" cx="284.9" cy="16.5" r="2.3"/><g fill="none" stroke="#00B1AC" stroke-width=".75" stroke-linecap="round" stroke-miterlimit="10"><path d="M274.7 23.3l1.3-.8"/><path stroke-dasharray="2.3383,2.3383" d="M278 21.3l3-1.8"/><path d="M282 18.9l1.2-.8"/></g><path d="M268.5 35l.7-1.9m0-.1l.7-1.9" fill="none" stroke="#00B1AC" stroke-width=".75" stroke-linecap="round" stroke-miterlimit="10"/><path fill="none" stroke="#00B1AC" stroke-width=".75" stroke-miterlimit="10" d="M275 29.1l6.2 4.1"/><circle fill="none" stroke="#00B1AC" stroke-width=".75" stroke-miterlimit="10" cx="267.8" cy="37.3" r="2.3"/><circle fill="none" stroke="#00B1AC" stroke-width=".75" stroke-miterlimit="10" cx="265.4" cy="14.2" r="2.3"/><path fill="none" stroke="#00B1AC" stroke-width=".75" stroke-miterlimit="10" d="M266.3 16l2.2 6.3"/><g fill="none" stroke="#823B96" stroke-width=".75" stroke-miterlimit="10"><circle cx="425" cy="25" r="23.5"/><path stroke-linecap="round" stroke-linejoin="round" d="M423.8 35.4c-3.2-.3-5.5-1.5-7.2-3.2l2.4-3.4c1.1 1.2 2.8 2.2 4.8 2.6v-4.7c-3.1-.8-6.5-1.9-6.5-6.1 0-3.1 2.4-5.7 6.5-6.1v-2.8h2.9v2.9c2.5.3 4.6 1.2 6.2 2.7l-2.4 3.2c-1.1-1-2.4-1.6-3.8-2v4.2c3.2.8 6.7 2 6.7 6.2 0 3.4-2.2 6-6.7 6.4V38h-2.9v-2.6zm0-13.3v-3.7c-1.3.2-2.1.9-2.1 1.9 0 .9.9 1.4 2.1 1.8zm2.9 5.4v4.1c1.5-.3 2.3-1.2 2.3-2.2 0-1-1-1.5-2.3-1.9z"/></g><g fill="none" stroke="#823B96" stroke-width=".75" stroke-miterlimit="10"><circle cx="524.9" cy="25" r="23.5"/><path d="M508.9 16l.5 13.4h5.9l2.4-11.9zm32.1 2.1l-.5 11.4h-3.7l-3.4-10.2zm-7.3 2.2c-2.1-.9-4.6-2.3-6.9-2.3-2.3 0-4.1 1.4-5.5 3.1-.4.5-.7 1-.8 1.6-.1.4 0 .9.2 1.3.1.3.3.5.6.7 1.1.7 3.1-1.1 3.9-1.7.5-.4 1.2-.5 1.8-.7l3 2.5c1.3 1.1 2.5 2.2 3.7 3.4.7.7 1.7 1.7 1.7 2.7 0 1-1 1.7-1.9 1.3-.8-.3-1.5-1.1-2.1-1.6-1.1-.9-2.2-1.9-3.3-2.8m-10.5-9.5l6.5.4m-8.5 9.3c2.2 1.9 4.3 3.7 6.5 5.6.7.6 1.4 1.2 2.2 1.7 1 .7 2.6 1.3 3.3-.6m-1.3-4.6c.8.7 1.7 1.4 2.5 2.1.4.4.8.7 1.3 1 .4.3.7.7 1.2.8.5.1 1.2 0 1.5-.4.5-.5.5-1 .5-1.6m-9.6-.4c.8.7 1.6 1.4 2.4 2 .4.3.8.7 1.2 1 .3.3.7.6 1.2.7.5.1 1.1 0 1.5-.3.5-.4.5-.8.5-1.4m4.4-4.2l1.7-.4" stroke-linecap="round" stroke-linejoin="round"/></g><g fill="none" stroke="#00B1AC" stroke-width=".75" stroke-miterlimit="10"><circle cx="375" cy="25" r="23.5"/><circle cx="375" cy="25" r="12.8"/><ellipse cx="375" cy="25" rx="5.6" ry="12.8"/><path d="M362.2 25h25.6M375 12.2v25.6m-9.8-4.7c5.4-5.4 14.2-5.4 19.6 0m0-16.3c-5.4 5.4-14.2 5.4-19.6 0"/></g><g fill="none" stroke="#823B96" stroke-width=".75" stroke-miterlimit="10"><circle cx="575.1" cy="25" r="23.5"/><circle cx="575.1" cy="25" r="12.8"/><ellipse cx="575.1" cy="25" rx="5.6" ry="12.8"/><path d="M562.3 25h25.6m-12.8-12.8v25.6m-9.9-4.7c5.4-5.4 14.2-5.4 19.6 0m0-16.3c-5.4 5.4-14.2 5.4-19.6 0"/></g><g fill="none" stroke="#00B1AC" stroke-width=".75" stroke-miterlimit="10"><circle cx="325.1" cy="25" r="23.5"/><circle cx="325.2" cy="18.3" r="3.4"/><path stroke-linecap="round" stroke-linejoin="round" d="M331.1 22.1l-.3.6c-.8 1.6-1.6 3.1-2.4 4.7-.4.9-.9 1.7-1.3 2.6-.6 1.3-1.3 2.6-1.9 3.8 0 0 0 .1-.1.1-.5-1-1-1.9-1.5-2.9-.9-1.8-1.9-3.7-2.8-5.5-.6-1.3-1.3-2.5-1.9-3.8-.6-1.2-1-2.4-1-3.7 0-4 3.2-7.2 7.2-7.2s7.2 3.2 7.2 7.2c0 1.5-.6 2.8-1.2 4.1z"/><path stroke-linecap="round" stroke-linejoin="round" d="M327.3 29.5c6.5.3 11.5 2.2 11.5 4.5 0 2.5-6.1 4.5-13.5 4.5-7.5 0-13.5-2-13.5-4.5 0-2.2 4.7-4 11-4.4"/></g><g fill="none" stroke="#00B1AC" stroke-width=".75" stroke-miterlimit="10"><circle cx="225" cy="25" r="23.5"/><path d="M233 23.2c0 1-.2 2-.6 2.9v.1l-.2.4-2.5 5.6-.1.3-.8 1.7v4.2h-.8v.1c0 .8-1.3 1.7-2.9 1.7-1.6 0-3-.9-3-1.7v-.1h-.8v-4.3l-3.2-7.2c-.6-1.1-1-2.4-1-3.7 0-4.3 3.5-7.8 7.9-7.8 4.4.1 8 3.5 8 7.8zm-11.7 10.9h7.5m-7.4 4.3h7.4m-7.5-2.4h7.5m-16.5-5.7l3.8-2.3M212 16.8l3.8 2m22 11.5L234 28m4.1-11.2l-3.8 2m-9.2-10.1v4.4m1.2 20.9s1.1-7.7 1.1-7.9c.2-1.3 2.4-.8 1.5.5-.3.5-.9.6-1.5.5-.8-.2-1.5-.6-2.2-1.1-.3-.3-.7-.6-.9-1-.2-.3-.3-.9 0-1.3.2-.2.6-.2.9-.2.1 0 .2.1.3.2.7.7-.4 1.8-.9 2.2-.6.5-1.4.9-2.2 1.1-.5.1-1.2 0-1.5-.5-.9-1.3 1.4-1.8 1.5-.5 0 .2 1.1 7.9 1.1 7.9" stroke-linecap="round" stroke-linejoin="round"/></g><g fill="none" stroke="#823B96" stroke-width=".75" stroke-miterlimit="10"><circle cx="475" cy="25" r="23.5"/><g stroke-linejoin="round"><path d="M481 12.9h3.9v25.5h-19.8V12.9h4.1"/><path d="M481 14.8h1.6v21.4h-15.1V14.8h1.7"/><path d="M481.1 11.8v3.8h-11.9v-3.8h3.6c0-1.2 1.4-2.2 2.5-2.2 1 0 2.3 1 2.4 2.2h3.4z"/><circle cx="475.3" cy="11.8" r=".8"/><path stroke-linecap="round" d="M478.9 25.2v4.5h-7.3v-7.4h5"/><path stroke-linecap="round" d="M473.5 25.3l2.4 2.5 3.7-7.2"/></g></g></svg>