<?xml version="1.0" encoding="utf-8"?>
<!-- Generator: Adobe Illustrator 18.1.1, SVG Export Plug-In . SVG Version: 6.00 Build 0)  -->
<svg version="1.1" id="Layer_1" xmlns="http://www.w3.org/2000/svg" xmlns:xlink="http://www.w3.org/1999/xlink" x="0px" y="0px"
	 viewBox="0 0 600 50" enable-background="new 0 0 600 50" xml:space="preserve">
<g>
	<circle fill="none" stroke="#C1DB74" stroke-width="0.75" stroke-miterlimit="10" cx="125" cy="25" r="23.5"/>
	<g>
		
			<path fill="none" stroke="#C1DB74" stroke-width="0.75" stroke-linecap="round" stroke-linejoin="round" stroke-miterlimit="10" d="
			M132.9,23.2c0,1-0.2,2-0.6,2.9c0,0,0,0,0,0l0,0.1l-0.2,0.4l0,0l-2.5,5.6l-0.1,0.3l-0.8,1.7v4.2H128c0,0,0,0,0,0.1
			c0,0.8-1.3,1.7-2.9,1.7c0,0,0,0,0,0c-1.6,0-3-0.9-3-1.7c0,0,0,0,0-0.1h-0.8v-4.3l-3.2-7.2c-0.6-1.1-1-2.4-1-3.7
			c0-4.3,3.5-7.8,7.9-7.8C129.4,15.5,132.9,18.9,132.9,23.2z"/>
		
			<line fill="none" stroke="#C1DB74" stroke-width="0.75" stroke-linecap="round" stroke-linejoin="round" stroke-miterlimit="10" x1="121.3" y1="34.1" x2="128.7" y2="34.1"/>
		
			<line fill="none" stroke="#C1DB74" stroke-width="0.75" stroke-linecap="round" stroke-linejoin="round" stroke-miterlimit="10" x1="121.3" y1="38.4" x2="128.7" y2="38.4"/>
		
			<line fill="none" stroke="#C1DB74" stroke-width="0.75" stroke-linecap="round" stroke-linejoin="round" stroke-miterlimit="10" x1="121.3" y1="36" x2="128.7" y2="36"/>
		<g>
			
				<line fill="none" stroke="#C1DB74" stroke-width="0.75" stroke-linecap="round" stroke-linejoin="round" stroke-miterlimit="10" x1="112.3" y1="30.3" x2="116" y2="28"/>
			
				<line fill="none" stroke="#C1DB74" stroke-width="0.75" stroke-linecap="round" stroke-linejoin="round" stroke-miterlimit="10" x1="111.9" y1="16.8" x2="115.8" y2="18.8"/>
		</g>
		<g>
			
				<line fill="none" stroke="#C1DB74" stroke-width="0.75" stroke-linecap="round" stroke-linejoin="round" stroke-miterlimit="10" x1="137.7" y1="30.3" x2="134" y2="28"/>
			
				<line fill="none" stroke="#C1DB74" stroke-width="0.75" stroke-linecap="round" stroke-linejoin="round" stroke-miterlimit="10" x1="138.1" y1="16.8" x2="134.2" y2="18.8"/>
		</g>
		
			<line fill="none" stroke="#C1DB74" stroke-width="0.75" stroke-linecap="round" stroke-linejoin="round" stroke-miterlimit="10" x1="125" y1="8.7" x2="125" y2="13.1"/>
		
			<path fill="none" stroke="#C1DB74" stroke-width="0.75" stroke-linecap="round" stroke-linejoin="round" stroke-miterlimit="10" d="
			M126.3,34c0,0,1.1-7.7,1.1-7.9c0.2-1.3,2.4-0.8,1.5,0.5c-0.3,0.5-0.9,0.6-1.5,0.5c-0.8-0.2-1.5-0.6-2.2-1.1
			c-0.3-0.3-0.7-0.6-0.9-1c-0.2-0.3-0.3-0.9,0-1.3c0.2-0.2,0.6-0.2,0.9-0.2c0.1,0,0.2,0.1,0.3,0.2c0.7,0.7-0.4,1.8-0.9,2.2
			c-0.6,0.5-1.4,0.9-2.2,1.1c-0.5,0.1-1.2,0-1.5-0.5c-0.9-1.3,1.4-1.8,1.5-0.5c0,0.2,1.1,7.9,1.1,7.9"/>
	</g>
</g>
<g>
	<circle fill="none" stroke="#C1DB74" stroke-width="0.75" stroke-miterlimit="10" cx="75" cy="25" r="23.5"/>
	<g>
		<circle fill="none" stroke="#C1DB74" stroke-width="0.75" stroke-miterlimit="10" cx="75.2" cy="18.3" r="3.4"/>
		
			<path fill="none" stroke="#C1DB74" stroke-width="0.75" stroke-linecap="round" stroke-linejoin="round" stroke-miterlimit="10" d="
			M81,22.1c-0.1,0.2-0.2,0.4-0.3,0.6c-0.8,1.6-1.6,3.1-2.4,4.7c-0.4,0.9-0.9,1.7-1.3,2.6c-0.6,1.3-1.3,2.6-1.9,3.8
			c0,0,0,0.1-0.1,0.1c-0.5-1-1-1.9-1.5-2.9c-0.9-1.8-1.9-3.7-2.8-5.5c-0.6-1.3-1.3-2.5-1.9-3.8c-0.6-1.2-1-2.4-1-3.7
			c0-4,3.2-7.2,7.2-7.2c4,0,7.2,3.2,7.2,7.2C82.2,19.5,81.6,20.8,81,22.1z"/>
		
			<path fill="none" stroke="#C1DB74" stroke-width="0.75" stroke-linecap="round" stroke-linejoin="round" stroke-miterlimit="10" d="
			M77.2,29.5c6.5,0.3,11.5,2.2,11.5,4.5c0,2.5-6.1,4.5-13.5,4.5s-13.5-2-13.5-4.5c0-2.2,4.7-4,11-4.4"/>
	</g>
</g>
<g>
	<circle fill="none" stroke="#C1DB74" stroke-width="0.75" stroke-miterlimit="10" cx="25" cy="25" r="23.5"/>
	<g>
		
			<path fill="none" stroke="#C1DB74" stroke-width="0.75" stroke-linecap="round" stroke-linejoin="round" stroke-miterlimit="10" d="
			M26.5,21.2c3.9,2.5,5.1,6,3.3,9.6"/>
		
			<path fill="none" stroke="#C1DB74" stroke-width="0.75" stroke-linecap="round" stroke-linejoin="round" stroke-miterlimit="10" d="
			M31.6,34.5c3.3-5.3,4.1-12.5-5.2-17.1"/>
		
			<polyline fill="none" stroke="#C1DB74" stroke-width="0.75" stroke-linecap="round" stroke-linejoin="round" stroke-miterlimit="10" points="
			31.6,34.5 31.6,39.1 16.1,39.1 16.1,35.4 25.9,35.4 25.9,32.7 		"/>
		
			<polyline fill="none" stroke="#C1DB74" stroke-width="0.75" stroke-linecap="round" stroke-linejoin="round" stroke-miterlimit="10" points="
			26.5,21.2 26.5,24.5 24.4,24.5 24.4,25.5 22.5,25.5 22.5,24.5 20.3,24.5 20.3,14.2 22.1,14.2 22.2,10.9 24.6,10.9 24.6,14.2 
			26.5,14.2 26.5,17.4 		"/>
		
			<rect x="17.7" y="30.8" fill="none" stroke="#C1DB74" stroke-width="0.75" stroke-linejoin="round" stroke-miterlimit="10" width="12.2" height="1.7"/>
		<line fill="none" stroke="#C1DB74" stroke-width="0.75" stroke-miterlimit="10" x1="22.1" y1="14.2" x2="24.8" y2="14.2"/>
		<line fill="none" stroke="#C1DB74" stroke-width="0.75" stroke-miterlimit="10" x1="22.1" y1="24.5" x2="25.2" y2="24.5"/>
		<line fill="none" stroke="#C1DB74" stroke-width="0.75" stroke-miterlimit="10" x1="26.5" y1="21.6" x2="26.5" y2="15.9"/>
	</g>
</g>
<g>
	<circle fill="none" stroke="#C1DB74" stroke-width="0.75" stroke-miterlimit="10" cx="175" cy="25" r="23.5"/>
	<g>
		<circle fill="none" stroke="#C1DB74" stroke-width="0.75" stroke-miterlimit="10" cx="175" cy="25" r="12.8"/>
		<ellipse fill="none" stroke="#C1DB74" stroke-width="0.75" stroke-miterlimit="10" cx="175" cy="25" rx="5.6" ry="12.8"/>
		<line fill="none" stroke="#C1DB74" stroke-width="0.75" stroke-miterlimit="10" x1="162.2" y1="25" x2="187.8" y2="25"/>
		<line fill="none" stroke="#C1DB74" stroke-width="0.75" stroke-miterlimit="10" x1="175" y1="12.2" x2="175" y2="37.8"/>
		<path fill="none" stroke="#C1DB74" stroke-width="0.75" stroke-miterlimit="10" d="M165.2,33.1c5.4-5.4,14.2-5.4,19.6,0"/>
		<path fill="none" stroke="#C1DB74" stroke-width="0.75" stroke-miterlimit="10" d="M184.8,16.8c-5.4,5.4-14.2,5.4-19.6,0"/>
	</g>
</g>
<g>
	<circle fill="none" stroke="#00B1AC" stroke-width="0.75" stroke-miterlimit="10" cx="274.9" cy="25" r="23.5"/>
	<g>
		<circle fill="none" stroke="#00B1AC" stroke-width="0.75" stroke-miterlimit="10" cx="271" cy="26.4" r="4.8"/>
		<circle fill="none" stroke="#00B1AC" stroke-width="0.75" stroke-miterlimit="10" cx="284.1" cy="34.4" r="3.2"/>
		<circle fill="none" stroke="#00B1AC" stroke-width="0.75" stroke-miterlimit="10" cx="284.9" cy="16.5" r="2.3"/>
		<g>
			<g>
				
					<line fill="none" stroke="#00B1AC" stroke-width="0.75" stroke-linecap="round" stroke-miterlimit="10" x1="274.7" y1="23.3" x2="276" y2="22.5"/>
				
					<line fill="none" stroke="#00B1AC" stroke-width="0.75" stroke-linecap="round" stroke-miterlimit="10" stroke-dasharray="2.3383,2.3383" x1="278" y1="21.3" x2="281" y2="19.5"/>
				
					<line fill="none" stroke="#00B1AC" stroke-width="0.75" stroke-linecap="round" stroke-miterlimit="10" x1="282" y1="18.9" x2="283.2" y2="18.1"/>
			</g>
		</g>
		<g>
			<g>
				
					<line fill="none" stroke="#00B1AC" stroke-width="0.75" stroke-linecap="round" stroke-miterlimit="10" x1="268.5" y1="35" x2="269.2" y2="33.1"/>
				
					<line fill="none" stroke="#00B1AC" stroke-width="0.75" stroke-linecap="round" stroke-miterlimit="10" x1="269.2" y1="33" x2="269.9" y2="31.1"/>
			</g>
		</g>
		<line fill="none" stroke="#00B1AC" stroke-width="0.75" stroke-miterlimit="10" x1="275" y1="29.1" x2="281.2" y2="33.2"/>
		<circle fill="none" stroke="#00B1AC" stroke-width="0.75" stroke-miterlimit="10" cx="267.8" cy="37.3" r="2.3"/>
		<circle fill="none" stroke="#00B1AC" stroke-width="0.75" stroke-miterlimit="10" cx="265.4" cy="14.2" r="2.3"/>
		<line fill="none" stroke="#00B1AC" stroke-width="0.75" stroke-miterlimit="10" x1="266.3" y1="16" x2="268.5" y2="22.3"/>
	</g>
</g>
<g>
	<circle fill="none" stroke="#823B96" stroke-width="0.75" stroke-miterlimit="10" cx="425" cy="25" r="23.5"/>
	<g>
		
			<path fill="none" stroke="#823B96" stroke-width="0.75" stroke-linecap="round" stroke-linejoin="round" stroke-miterlimit="10" d="
			M423.8,35.4c-3.2-0.3-5.5-1.5-7.2-3.2l2.4-3.4c1.1,1.2,2.8,2.2,4.8,2.6v-4.7c-3.1-0.8-6.5-1.9-6.5-6.1c0-3.1,2.4-5.7,6.5-6.1v-2.8
			h2.9v2.9c2.5,0.3,4.6,1.2,6.2,2.7l-2.4,3.2c-1.1-1-2.4-1.6-3.8-2v4.2c3.2,0.8,6.7,2,6.7,6.2c0,3.4-2.2,6-6.7,6.4v2.7h-2.9V35.4z
			 M423.8,22.1v-3.7c-1.3,0.2-2.1,0.9-2.1,1.9C421.7,21.2,422.6,21.7,423.8,22.1z M426.7,27.5v4.1c1.5-0.3,2.3-1.2,2.3-2.2
			C429,28.4,428,27.9,426.7,27.5z"/>
	</g>
</g>
<g>
	<circle fill="none" stroke="#823B96" stroke-width="0.75" stroke-miterlimit="10" cx="524.9" cy="25" r="23.5"/>
	<g>
		
			<polygon fill="none" stroke="#823B96" stroke-width="0.75" stroke-linecap="round" stroke-linejoin="round" stroke-miterlimit="10" points="
			508.9,16 509.4,29.4 515.3,29.4 517.7,17.5 		"/>
		
			<polygon fill="none" stroke="#823B96" stroke-width="0.75" stroke-linecap="round" stroke-linejoin="round" stroke-miterlimit="10" points="
			541,18.1 540.5,29.5 536.8,29.5 533.4,19.3 		"/>
		
			<path fill="none" stroke="#823B96" stroke-width="0.75" stroke-linecap="round" stroke-linejoin="round" stroke-miterlimit="10" d="
			M533.7,20.3c-2.1-0.9-4.6-2.3-6.9-2.3c-2.3,0-4.1,1.4-5.5,3.1c-0.4,0.5-0.7,1-0.8,1.6c-0.1,0.4,0,0.9,0.2,1.3
			c0.1,0.3,0.3,0.5,0.6,0.7c1.1,0.7,3.1-1.1,3.9-1.7c0.5-0.4,1.2-0.5,1.8-0.7c0,0,3,2.5,3,2.5c1.3,1.1,2.5,2.2,3.7,3.4
			c0.7,0.7,1.7,1.7,1.7,2.7c0,1-1,1.7-1.9,1.3c-0.8-0.3-1.5-1.1-2.1-1.6c-1.1-0.9-2.2-1.9-3.3-2.8"/>
		
			<line fill="none" stroke="#823B96" stroke-width="0.75" stroke-linecap="round" stroke-linejoin="round" stroke-miterlimit="10" x1="517.6" y1="18.3" x2="524.1" y2="18.7"/>
		
			<path fill="none" stroke="#823B96" stroke-width="0.75" stroke-linecap="round" stroke-linejoin="round" stroke-miterlimit="10" d="
			M515.6,28c2.2,1.9,4.3,3.7,6.5,5.6c0.7,0.6,1.4,1.2,2.2,1.7c1,0.7,2.6,1.3,3.3-0.6"/>
		
			<path fill="none" stroke="#823B96" stroke-width="0.75" stroke-linecap="round" stroke-linejoin="round" stroke-miterlimit="10" d="
			M526.3,30.1c0.8,0.7,1.7,1.4,2.5,2.1c0.4,0.4,0.8,0.7,1.3,1c0.4,0.3,0.7,0.7,1.2,0.8c0.5,0.1,1.2,0,1.5-0.4c0.5-0.5,0.5-1,0.5-1.6
			"/>
		
			<path fill="none" stroke="#823B96" stroke-width="0.75" stroke-linecap="round" stroke-linejoin="round" stroke-miterlimit="10" d="
			M523.7,31.6c0.8,0.7,1.6,1.4,2.4,2c0.4,0.3,0.8,0.7,1.2,1c0.3,0.3,0.7,0.6,1.2,0.7c0.5,0.1,1.1,0,1.5-0.3c0.5-0.4,0.5-0.8,0.5-1.4
			"/>
		
			<line fill="none" stroke="#823B96" stroke-width="0.75" stroke-linecap="round" stroke-linejoin="round" stroke-miterlimit="10" x1="534.9" y1="29.4" x2="536.6" y2="29"/>
	</g>
</g>
<g>
	<circle fill="none" stroke="#00B1AC" stroke-width="0.75" stroke-miterlimit="10" cx="375" cy="25" r="23.5"/>
	<g>
		<circle fill="none" stroke="#00B1AC" stroke-width="0.75" stroke-miterlimit="10" cx="375" cy="25" r="12.8"/>
		<ellipse fill="none" stroke="#00B1AC" stroke-width="0.75" stroke-miterlimit="10" cx="375" cy="25" rx="5.6" ry="12.8"/>
		<line fill="none" stroke="#00B1AC" stroke-width="0.75" stroke-miterlimit="10" x1="362.2" y1="25" x2="387.8" y2="25"/>
		<line fill="none" stroke="#00B1AC" stroke-width="0.75" stroke-miterlimit="10" x1="375" y1="12.2" x2="375" y2="37.8"/>
		<path fill="none" stroke="#00B1AC" stroke-width="0.75" stroke-miterlimit="10" d="M365.2,33.1c5.4-5.4,14.2-5.4,19.6,0"/>
		<path fill="none" stroke="#00B1AC" stroke-width="0.75" stroke-miterlimit="10" d="M384.8,16.8c-5.4,5.4-14.2,5.4-19.6,0"/>
	</g>
</g>
<g>
	<circle fill="none" stroke="#823B96" stroke-width="0.75" stroke-miterlimit="10" cx="575.1" cy="25" r="23.5"/>
	<g>
		<circle fill="none" stroke="#823B96" stroke-width="0.75" stroke-miterlimit="10" cx="575.1" cy="25" r="12.8"/>
		<ellipse fill="none" stroke="#823B96" stroke-width="0.75" stroke-miterlimit="10" cx="575.1" cy="25" rx="5.6" ry="12.8"/>
		<line fill="none" stroke="#823B96" stroke-width="0.75" stroke-miterlimit="10" x1="562.3" y1="25" x2="587.9" y2="25"/>
		<line fill="none" stroke="#823B96" stroke-width="0.75" stroke-miterlimit="10" x1="575.1" y1="12.2" x2="575.1" y2="37.8"/>
		<path fill="none" stroke="#823B96" stroke-width="0.75" stroke-miterlimit="10" d="M565.2,33.1c5.4-5.4,14.2-5.4,19.6,0"/>
		<path fill="none" stroke="#823B96" stroke-width="0.75" stroke-miterlimit="10" d="M584.8,16.8c-5.4,5.4-14.2,5.4-19.6,0"/>
	</g>
</g>
<g>
	<circle fill="none" stroke="#00B1AC" stroke-width="0.75" stroke-miterlimit="10" cx="325.1" cy="25" r="23.5"/>
	<g>
		<circle fill="none" stroke="#00B1AC" stroke-width="0.75" stroke-miterlimit="10" cx="325.2" cy="18.3" r="3.4"/>
		
			<path fill="none" stroke="#00B1AC" stroke-width="0.75" stroke-linecap="round" stroke-linejoin="round" stroke-miterlimit="10" d="
			M331.1,22.1c-0.1,0.2-0.2,0.4-0.3,0.6c-0.8,1.6-1.6,3.1-2.4,4.7c-0.4,0.9-0.9,1.7-1.3,2.6c-0.6,1.3-1.3,2.6-1.9,3.8
			c0,0,0,0.1-0.1,0.1c-0.5-1-1-1.9-1.5-2.9c-0.9-1.8-1.9-3.7-2.8-5.5c-0.6-1.3-1.3-2.5-1.9-3.8c-0.6-1.2-1-2.4-1-3.7
			c0-4,3.2-7.2,7.2-7.2c4,0,7.2,3.2,7.2,7.2C332.3,19.5,331.7,20.8,331.1,22.1z"/>
		
			<path fill="none" stroke="#00B1AC" stroke-width="0.75" stroke-linecap="round" stroke-linejoin="round" stroke-miterlimit="10" d="
			M327.3,29.5c6.5,0.3,11.5,2.2,11.5,4.5c0,2.5-6.1,4.5-13.5,4.5c-7.5,0-13.5-2-13.5-4.5c0-2.2,4.7-4,11-4.4"/>
	</g>
</g>
<g>
	<circle fill="none" stroke="#00B1AC" stroke-width="0.75" stroke-miterlimit="10" cx="225" cy="25" r="23.5"/>
	<g>
		
			<path fill="none" stroke="#00B1AC" stroke-width="0.75" stroke-linecap="round" stroke-linejoin="round" stroke-miterlimit="10" d="
			M233,23.2c0,1-0.2,2-0.6,2.9c0,0,0,0,0,0l0,0.1l-0.2,0.4l0,0l-2.5,5.6l-0.1,0.3l-0.8,1.7v4.2H228c0,0,0,0,0,0.1
			c0,0.8-1.3,1.7-2.9,1.7c0,0,0,0,0,0c-1.6,0-3-0.9-3-1.7c0,0,0,0,0-0.1h-0.8v-4.3l-3.2-7.2c-0.6-1.1-1-2.4-1-3.7
			c0-4.3,3.5-7.8,7.9-7.8C229.4,15.5,233,18.9,233,23.2z"/>
		
			<line fill="none" stroke="#00B1AC" stroke-width="0.75" stroke-linecap="round" stroke-linejoin="round" stroke-miterlimit="10" x1="221.3" y1="34.1" x2="228.8" y2="34.1"/>
		
			<line fill="none" stroke="#00B1AC" stroke-width="0.75" stroke-linecap="round" stroke-linejoin="round" stroke-miterlimit="10" x1="221.4" y1="38.4" x2="228.8" y2="38.4"/>
		
			<line fill="none" stroke="#00B1AC" stroke-width="0.75" stroke-linecap="round" stroke-linejoin="round" stroke-miterlimit="10" x1="221.3" y1="36" x2="228.8" y2="36"/>
		<g>
			
				<line fill="none" stroke="#00B1AC" stroke-width="0.75" stroke-linecap="round" stroke-linejoin="round" stroke-miterlimit="10" x1="212.3" y1="30.3" x2="216.1" y2="28"/>
			
				<line fill="none" stroke="#00B1AC" stroke-width="0.75" stroke-linecap="round" stroke-linejoin="round" stroke-miterlimit="10" x1="212" y1="16.8" x2="215.8" y2="18.8"/>
		</g>
		<g>
			
				<line fill="none" stroke="#00B1AC" stroke-width="0.75" stroke-linecap="round" stroke-linejoin="round" stroke-miterlimit="10" x1="237.8" y1="30.3" x2="234" y2="28"/>
			
				<line fill="none" stroke="#00B1AC" stroke-width="0.75" stroke-linecap="round" stroke-linejoin="round" stroke-miterlimit="10" x1="238.1" y1="16.8" x2="234.3" y2="18.8"/>
		</g>
		
			<line fill="none" stroke="#00B1AC" stroke-width="0.75" stroke-linecap="round" stroke-linejoin="round" stroke-miterlimit="10" x1="225.1" y1="8.7" x2="225.1" y2="13.1"/>
		
			<path fill="none" stroke="#00B1AC" stroke-width="0.75" stroke-linecap="round" stroke-linejoin="round" stroke-miterlimit="10" d="
			M226.3,34c0,0,1.1-7.7,1.1-7.9c0.2-1.3,2.4-0.8,1.5,0.5c-0.3,0.5-0.9,0.6-1.5,0.5c-0.8-0.2-1.5-0.6-2.2-1.1
			c-0.3-0.3-0.7-0.6-0.9-1c-0.2-0.3-0.3-0.9,0-1.3c0.2-0.2,0.6-0.2,0.9-0.2c0.1,0,0.2,0.1,0.3,0.2c0.7,0.7-0.4,1.8-0.9,2.2
			c-0.6,0.5-1.4,0.9-2.2,1.1c-0.5,0.1-1.2,0-1.5-0.5c-0.9-1.3,1.4-1.8,1.5-0.5c0,0.2,1.1,7.9,1.1,7.9"/>
	</g>
</g>
<g>
	<circle fill="none" stroke="#823B96" stroke-width="0.75" stroke-miterlimit="10" cx="475" cy="25" r="23.5"/>
	<g>
		<path fill="none" stroke="#823B96" stroke-width="0.75" stroke-linejoin="round" stroke-miterlimit="10" d="M469.7,12.9"/>
		<polyline fill="none" stroke="#823B96" stroke-width="0.75" stroke-linejoin="round" stroke-miterlimit="10" points="481,12.9 
			484.9,12.9 484.9,38.4 465.1,38.4 465.1,12.9 469.2,12.9 		"/>
		<polyline fill="none" stroke="#823B96" stroke-width="0.75" stroke-linejoin="round" stroke-miterlimit="10" points="481,14.8 
			482.6,14.8 482.6,36.2 467.5,36.2 467.5,14.8 469.2,14.8 		"/>
		<path fill="none" stroke="#823B96" stroke-width="0.75" stroke-linejoin="round" stroke-miterlimit="10" d="M481.1,11.8v3.8h-11.9
			v-3.8h3.6c0-1.2,1.4-2.2,2.5-2.2c1,0,2.3,1,2.4,2.2H481.1z"/>
		
			<circle fill="none" stroke="#823B96" stroke-width="0.75" stroke-linejoin="round" stroke-miterlimit="10" cx="475.3" cy="11.8" r="0.8"/>
		
			<polyline fill="none" stroke="#823B96" stroke-width="0.75" stroke-linecap="round" stroke-linejoin="round" stroke-miterlimit="10" points="
			478.9,25.2 478.9,29.7 471.6,29.7 471.6,22.3 476.6,22.3 		"/>
		
			<polyline fill="none" stroke="#823B96" stroke-width="0.75" stroke-linecap="round" stroke-linejoin="round" stroke-miterlimit="10" points="
			473.5,25.3 475.9,27.8 479.6,20.6 		"/>
	</g>
</g>
</svg>
